<svg width="50" height="41" xmlns="http://www.w3.org/2000/svg">

 <g>
  <g>
   <rect x="-1" y="-9.628627" width="52" height="43" id="canvas_background" fill="none"/>
  </g>
  <g stroke="null" >
   <rect stroke="null" x="-1.249806" width="52.994966" height="43.625339" fill="rgb(255, 153, 96)" id="svg_1" y="-1.379343"/>
   <rect stroke="null" x="-0.749863" y="30.092123" width="52" height="12.154251" fill="rgb(127, 76, 48)"/>
   <path stroke="null" d="m45.250137,37.037409l-30,0c-0.553,0 -1,-0.388068 -1,-0.868161s0.447,-0.868161 1,-0.868161l30,0c0.553,0 1,0.388068 1,0.868161s-0.447,0.868161 -1,0.868161z" fill="#2A303D"/>
   <path stroke="null" d="m5.250137,39.641891c-0.553,0 -1,-0.388068 -1,-0.868161l0,-5.208965c0,-0.480093 0.447,-0.868161 1,-0.868161s1,0.388068 1,0.868161l0,5.208965c0,0.480093 -0.447,0.868161 -1,0.868161z" fill="#FFFFFF"/>
   <path stroke="null" d="m9.250137,39.641891c-0.553,0 -1,-0.388068 -1,-0.868161l0,-5.208965c0,-0.480093 0.447,-0.868161 1,-0.868161s1,0.388068 1,0.868161l0,5.208965c0,0.480093 -0.447,0.868161 -1,0.868161z" fill="#FFFFFF"/>
   <path stroke="null" d="m20.250137,35.301087l-5,0c-0.553,0 -1,0.388068 -1,0.868161s0.447,0.868161 1,0.868161l5,0l0,-1.736322z" fill="#DD352E"/>
   <path stroke="null" d="m20.250137,39.641891c-0.553,0 -1,-0.388068 -1,-0.868161l0,-5.208965c0,-0.480093 0.447,-0.868161 1,-0.868161s1,0.388068 1,0.868161l0,5.208965c0,0.480093 -0.447,0.868161 -1,0.868161z" fill="#FFFFFF"/>
   <path stroke="null" d="m37.623126,15.658945l-12.139784,-7.416533c-0.137584,-0.084314 -0.316084,-0.094463 -0.465808,-0.027324c-0.148825,0.066749 -0.242346,0.200637 -0.242346,0.346235l0,6.939142l-11.881251,-7.25376c-0.137135,-0.083143 -0.316084,-0.094073 -0.465808,-0.026934c-0.148825,0.067139 -0.242346,0.201027 -0.242346,0.346625l0,14.823308c0,0.145598 0.093521,0.279486 0.242346,0.346625c0.065645,0.028885 0.136685,0.043328 0.207276,0.043328c0.090824,0 0.181198,-0.024202 0.258532,-0.071042l11.881251,-7.25337l0,6.939142c0,0.145598 0.093521,0.279486 0.242346,0.346625c0.065645,0.029276 0.136685,0.043719 0.207276,0.043719c0.090824,0 0.181647,-0.024202 0.258532,-0.071433l12.139784,-7.416533c0.120049,-0.072604 0.191089,-0.192049 0.191089,-0.318911s-0.07104,-0.246307 -0.191089,-0.318911l0,0.000003zm-24.5381,6.978958l0,-13.319703l10.90872,6.659656l-10.90872,6.660047zm12.589405,0.004294l0,-13.328681l10.909169,6.664341l-10.909169,6.664341z" fill="#FFFFFF"/>
  </g>
 </g>
</svg>